<svg width="126" height="97" viewBox="0 0 126 97" fill="none" xmlns="http://www.w3.org/2000/svg">
<g filter="url(#filter0_f_420_35340)">
<path d="M32.1662 58.0949C32.3573 58.1004 34.2971 65.7426 34.2971 68.7123C34.2971 71.6819 33.343 74.0897 32.1662 74.0897C30.9894 74.0897 30.0353 71.6822 30.0353 68.7126C30.0353 65.7429 31.9739 58.0898 32.1662 58.0949Z" fill="#42A0F0"/>
<path d="M31.8412 67.0068C32.1525 67.1149 32.2471 67.7875 32.0527 68.5095C31.8583 69.2314 31.4481 69.7287 31.1367 69.6209C30.8254 69.513 30.7306 68.8401 30.9253 68.1182C31.12 67.3963 31.5296 66.8989 31.8412 67.0068Z" fill="white"/>
<path d="M50.3195 58.0949C50.5107 58.1004 52.4504 65.7426 52.4504 68.7123C52.4504 71.6819 51.4963 74.0897 50.3195 74.0897C49.1427 74.0897 48.1886 71.6822 48.1886 68.7126C48.1886 65.7429 50.1272 58.0898 50.3195 58.0949Z" fill="#42A0F0"/>
<path d="M49.9946 67.0068C50.3058 67.1149 50.4005 67.7875 50.206 68.5095C50.0116 69.2314 49.6014 69.7287 49.2901 69.6209C48.9787 69.513 48.8839 68.8401 49.0786 68.1182C49.2733 67.3963 49.683 66.8989 49.9946 67.0068Z" fill="white"/>
<path d="M68.4728 58.0949C68.664 58.1004 70.6038 65.7426 70.6038 68.7123C70.6038 71.6819 69.6496 74.0897 68.4728 74.0897C67.2961 74.0897 66.3419 71.6822 66.3419 68.7126C66.3419 65.7429 68.2805 58.0898 68.4728 58.0949Z" fill="#42A0F0"/>
<path d="M68.1479 67.0068C68.4591 67.1149 68.5538 67.7875 68.3593 68.5095C68.1649 69.2314 67.7547 69.7287 67.4434 69.6209C67.1321 69.513 67.0372 68.8401 67.2319 68.1182C67.4267 67.3963 67.8363 66.8989 68.1479 67.0068Z" fill="white"/>
<path d="M86.626 57.1862C86.8172 57.1917 88.757 64.8339 88.757 67.8036C88.757 70.7732 87.8028 73.181 86.626 73.181C85.4493 73.181 84.4951 70.7736 84.4951 67.8039C84.4951 64.8342 86.4337 57.1811 86.626 57.1862Z" fill="#42A0F0"/>
<path d="M86.3011 66.098C86.6123 66.2062 86.707 66.8788 86.5125 67.6007C86.3181 68.3227 85.9079 68.82 85.5966 68.7121C85.2853 68.6043 85.1904 67.9313 85.3851 67.2095C85.5799 66.4876 85.9895 65.9901 86.3011 66.098Z" fill="white"/>
<path d="M58.862 78.3895C59.0531 78.3949 60.9929 86.0372 60.9929 89.0068C60.9929 91.9765 60.0388 94.3843 58.862 94.3843C57.6852 94.3843 56.7311 91.9768 56.7311 89.0071C56.7311 86.0375 58.6697 78.3843 58.862 78.3895Z" fill="#42A0F0"/>
<path d="M58.537 87.3013C58.8483 87.4094 58.9429 88.082 58.7485 88.804C58.5541 89.5259 58.1439 90.0232 57.8325 89.9154C57.5212 89.8075 57.4264 89.1346 57.6211 88.4127C57.8158 87.6908 58.2254 87.1934 58.537 87.3013Z" fill="white"/>
<path d="M77.0153 78.3895C77.2065 78.3949 79.1462 86.0372 79.1462 89.0068C79.1462 91.9765 78.1921 94.3843 77.0153 94.3843C75.8385 94.3843 74.8844 91.9768 74.8844 89.0071C74.8844 86.0375 76.823 78.3843 77.0153 78.3895Z" fill="#42A0F0"/>
<path d="M76.6904 87.3013C77.0016 87.4094 77.0963 88.082 76.9018 88.804C76.7074 89.5259 76.2972 90.0232 75.9859 89.9154C75.6745 89.8075 75.5797 89.1346 75.7744 88.4127C75.9691 87.6908 76.3788 87.1934 76.6904 87.3013Z" fill="white"/>
<path d="M96.2366 78.3895C96.4278 78.3949 98.3676 86.0372 98.3676 89.0068C98.3676 91.9765 97.4134 94.3843 96.2366 94.3843C95.0599 94.3843 94.1057 91.9768 94.1057 89.0071C94.1057 86.0375 96.0443 78.3843 96.2366 78.3895Z" fill="#42A0F0"/>
<path d="M95.9117 87.3013C96.2229 87.4094 96.3176 88.082 96.1231 88.804C95.9287 89.5259 95.5185 90.0232 95.2072 89.9154C94.8959 89.8075 94.801 89.1346 94.9957 88.4127C95.1905 87.6908 95.6001 87.1934 95.9117 87.3013Z" fill="white"/>
<path d="M40.709 79.2981C40.9002 79.3036 42.84 86.9458 42.84 89.9155C42.84 92.8851 41.8858 95.2929 40.709 95.2929C39.5323 95.2929 38.5781 92.8854 38.5781 89.9158C38.5781 86.9461 40.5167 79.2929 40.709 79.2981Z" fill="#42A0F0"/>
<path d="M40.3841 88.21C40.6953 88.3181 40.79 88.9907 40.5955 89.7126C40.4011 90.4346 39.9909 90.9319 39.6796 90.8241C39.3683 90.7162 39.2734 90.0433 39.4681 89.3214C39.6629 88.5995 40.0725 88.102 40.3841 88.21Z" fill="white"/>
<path d="M23.6235 78.3895C23.8146 78.3949 25.7544 86.0372 25.7544 89.0068C25.7544 91.9765 24.8003 94.3843 23.6235 94.3843C22.4467 94.3843 21.4926 91.9768 21.4926 89.0071C21.4926 86.0375 23.4311 78.3843 23.6235 78.3895Z" fill="#42A0F0"/>
<path d="M23.2985 87.3013C23.6098 87.4094 23.7044 88.082 23.51 88.804C23.3155 89.5259 22.9053 90.0232 22.594 89.9154C22.2827 89.8075 22.1878 89.1346 22.3826 88.4127C22.5773 87.6908 22.9869 87.1934 23.2985 87.3013Z" fill="white"/>
<g filter="url(#filter1_d_420_35340)">
<path d="M86.2781 76.1609H28.2927C22.6677 76.1567 17.2624 73.9766 13.2083 70.0771C9.15431 66.1776 6.7659 60.8611 6.54311 55.2404C6.32032 49.6198 8.28042 44.1309 12.0131 39.9228C15.7457 35.7146 20.9615 33.1135 26.5686 32.664C27.3682 27.0179 29.9178 21.7646 33.8588 17.6431C37.7997 13.5215 42.9337 10.7393 48.5383 9.68774C54.143 8.63618 59.9363 9.36823 65.1032 11.7809C70.2701 14.1936 74.5506 18.1655 77.3424 23.1377C82.463 21.3652 87.9954 21.1581 93.2342 22.5427C98.4729 23.9274 103.18 26.8412 106.756 30.9123C110.332 34.9835 112.614 40.0276 113.312 45.4011C114.009 50.7747 113.09 56.2342 110.672 61.0833C109.253 65.4647 106.482 69.2839 102.758 71.9928C99.0333 74.7016 94.5463 76.1608 89.9408 76.1609H86.2781Z" fill="url(#paint0_linear_420_35340)"/>
<path d="M89.9407 75.8579C92.2792 75.8579 94.5784 75.4846 96.7745 74.7482C98.8981 74.0361 100.892 72.9969 102.7 71.6596C104.488 70.3376 106.054 68.754 107.357 66.9528C108.676 65.1292 109.695 63.123 110.384 60.9901L110.391 60.9682L110.401 60.9477C111.318 59.1159 112.024 57.1781 112.499 55.1881C112.988 53.1404 113.237 51.0246 113.237 48.8995C113.237 47.0703 113.052 45.2422 112.689 43.4662C112.335 41.7355 111.806 40.033 111.118 38.4063C110.443 36.8089 109.606 35.2683 108.633 33.8271C107.668 32.3996 106.561 31.0571 105.341 29.8371C104.121 28.6171 102.778 27.5095 101.351 26.5451C99.9095 25.5714 98.3689 24.7352 96.7716 24.0596C95.1448 23.3715 93.4423 22.843 91.7116 22.4888C89.9355 22.1254 88.1075 21.9411 86.2782 21.9411C83.2493 21.9411 80.2762 22.4396 77.4416 23.4227L77.2024 23.5057L77.0783 23.285C74.7714 19.1832 71.4159 15.7383 67.3745 13.3231C65.3306 12.1016 63.1348 11.1577 60.848 10.5175C58.4888 9.85711 56.0384 9.52226 53.5646 9.52226C50.2373 9.52226 46.9893 10.1211 43.9109 11.3021C40.937 12.4431 38.2089 14.0912 35.8023 16.2007C33.4096 18.298 31.424 20.7728 29.9006 23.556C28.3398 26.4076 27.3196 29.4858 26.8685 32.7049L26.8348 32.9459L26.5922 32.9649C23.8787 33.1773 21.268 33.8917 18.8327 35.0883C16.4662 36.251 14.3531 37.8236 12.552 39.7624C8.85111 43.7463 6.81291 48.937 6.81291 54.3782C6.81291 57.2781 7.38079 60.0911 8.50077 62.739C9.03909 64.0117 9.70538 65.2392 10.4811 66.3875C11.2496 67.525 12.1321 68.5946 13.1042 69.5666C14.0763 70.5387 15.1459 71.4213 16.2833 72.1897C17.4316 72.9655 18.6592 73.6318 19.9318 74.1701C22.5798 75.2901 25.3927 75.8579 28.2926 75.8579H86.2782H89.9407ZM89.9407 76.1608H86.2782H28.2926C16.2625 76.1608 6.51001 66.4084 6.51001 54.3782C6.51001 42.9282 15.3441 33.5415 26.5686 32.6629C28.4252 19.4143 39.8042 9.21936 53.5646 9.21936C63.7731 9.21936 72.6709 14.8301 77.3423 23.1366C80.1418 22.1657 83.1483 21.6382 86.2782 21.6382C101.334 21.6382 113.539 33.8437 113.539 48.8995C113.539 53.2784 112.507 57.4168 110.672 61.0833C107.844 69.8328 99.6317 76.1608 89.9407 76.1608Z" fill="white" fill-opacity="0.5"/>
</g>
</g>
<defs>
<filter id="filter0_f_420_35340" x="5.2984" y="8.00775" width="109.453" height="88.4968" filterUnits="userSpaceOnUse" color-interpolation-filters="sRGB">
<feFlood flood-opacity="0" result="BackgroundImageFix"/>
<feBlend mode="normal" in="SourceGraphic" in2="BackgroundImageFix" result="shape"/>
<feGaussianBlur stdDeviation="0.605806" result="effect1_foregroundBlur_420_35340"/>
</filter>
<filter id="filter1_d_420_35340" x="0.451945" y="0.73807" width="125.204" height="85.1158" filterUnits="userSpaceOnUse" color-interpolation-filters="sRGB">
<feFlood flood-opacity="0" result="BackgroundImageFix"/>
<feColorMatrix in="SourceAlpha" type="matrix" values="0 0 0 0 0 0 0 0 0 0 0 0 0 0 0 0 0 0 127 0" result="hardAlpha"/>
<feOffset dx="3.02903" dy="0.605806"/>
<feGaussianBlur stdDeviation="4.54355"/>
<feColorMatrix type="matrix" values="0 0 0 0 0.258824 0 0 0 0 0.627451 0 0 0 0 0.941176 0 0 0 0.596 0"/>
<feBlend mode="normal" in2="BackgroundImageFix" result="effect1_dropShadow_420_35340"/>
<feBlend mode="normal" in="SourceGraphic" in2="effect1_dropShadow_420_35340" result="shape"/>
</filter>
<linearGradient id="paint0_linear_420_35340" x1="60.0324" y1="9.22009" x2="91.1232" y2="84.3897" gradientUnits="userSpaceOnUse">
<stop stop-color="white" stop-opacity="0.604"/>
<stop offset="1" stop-color="white" stop-opacity="0.2"/>
</linearGradient>
</defs>
</svg>
