<svg width="126" height="101" viewBox="0 0 126 101" fill="none" xmlns="http://www.w3.org/2000/svg">
<g filter="url(#filter0_f_420_35569)">
<path d="M38.6995 57.744L58.898 90.0616" stroke="#42A0F0" stroke-width="2.72613" stroke-linecap="round"/>
<path d="M43.5726 65.6843L45.5476 56.4601" stroke="#42A0F0" stroke-width="2.72613" stroke-linecap="round"/>
<path d="M43.5726 65.6843L34.2362 63.5297" stroke="#42A0F0" stroke-width="2.72613" stroke-linecap="round"/>
<path d="M54.3451 82.9202L63.502 85.187" stroke="#42A0F0" stroke-width="2.72613" stroke-linecap="round"/>
<path d="M54.3451 82.9202L52.1905 92.2567" stroke="#42A0F0" stroke-width="2.72613" stroke-linecap="round"/>
<path d="M57.7496 57.259L39.861 90.9102" stroke="#42A0F0" stroke-width="2.72613" stroke-linecap="round"/>
<path d="M53.3096 65.4493L62.2855 62.5476" stroke="#42A0F0" stroke-width="2.72613" stroke-linecap="round"/>
<path d="M53.3096 65.4493L50.5073 56.2864" stroke="#42A0F0" stroke-width="2.72613" stroke-linecap="round"/>
<path d="M43.7691 83.3965L46.3845 92.46" stroke="#42A0F0" stroke-width="2.72613" stroke-linecap="round"/>
<path d="M43.7691 83.3965L34.6062 86.1988" stroke="#42A0F0" stroke-width="2.72613" stroke-linecap="round"/>
<path d="M67.6946 73.5143L29.6075 74.848" stroke="#42A0F0" stroke-width="2.72613" stroke-linecap="round"/>
<path d="M58.3815 73.7643L65.3824 80.0868" stroke="#42A0F0" stroke-width="2.72613" stroke-linecap="round"/>
<path d="M58.3815 73.7643L64.9156 66.756" stroke="#42A0F0" stroke-width="2.72613" stroke-linecap="round"/>
<path d="M38.0685 74.4756L31.527 81.2723" stroke="#42A0F0" stroke-width="2.72613" stroke-linecap="round"/>
<path d="M38.0685 74.4756L31.0602 67.9415" stroke="#42A0F0" stroke-width="2.72613" stroke-linecap="round"/>
<path d="M89.0831 78.1638L81.3977 95.4228" stroke="#42A0F0" stroke-width="1.81837" stroke-linecap="round"/>
<path d="M87.1698 82.3673L91.5084 80.6225" stroke="#42A0F0" stroke-width="1.81837" stroke-linecap="round"/>
<path d="M87.1698 82.3673L85.4678 77.9326" stroke="#42A0F0" stroke-width="1.81837" stroke-linecap="round"/>
<path d="M83.0709 91.5721L84.6769 95.9641" stroke="#42A0F0" stroke-width="1.81837" stroke-linecap="round"/>
<path d="M83.0709 91.5722L78.6362 93.2742" stroke="#42A0F0" stroke-width="1.81837" stroke-linecap="round"/>
<path d="M94.562 85.8596L75.7725 87.8334" stroke="#42A0F0" stroke-width="1.81837" stroke-linecap="round"/>
<path d="M89.965 86.3043L93.6453 89.1893" stroke="#42A0F0" stroke-width="1.81837" stroke-linecap="round"/>
<path d="M89.965 86.3043L92.9545 82.613" stroke="#42A0F0" stroke-width="1.81837" stroke-linecap="round"/>
<path d="M79.9439 87.357L76.9434 90.9438" stroke="#42A0F0" stroke-width="1.81837" stroke-linecap="round"/>
<path d="M79.9439 87.3571L76.2526 84.3675" stroke="#42A0F0" stroke-width="1.81837" stroke-linecap="round"/>
<path d="M90.6368 94.4523L79.5328 79.1671" stroke="#42A0F0" stroke-width="1.81837" stroke-linecap="round"/>
<path d="M87.9531 90.6936L87.2948 95.3233" stroke="#42A0F0" stroke-width="1.81837" stroke-linecap="round"/>
<path d="M87.9531 90.6935L92.6447 91.4369" stroke="#42A0F0" stroke-width="1.81837" stroke-linecap="round"/>
<path d="M82.0309 82.5414L77.4244 81.7363" stroke="#42A0F0" stroke-width="1.81837" stroke-linecap="round"/>
<path d="M82.0309 82.5414L82.7742 77.8499" stroke="#42A0F0" stroke-width="1.81837" stroke-linecap="round"/>
<g filter="url(#filter1_d_420_35569)">
<path d="M86.0435 75.9874H28.0582C22.4331 75.9831 17.0278 73.803 12.9738 69.9035C8.91975 66.0041 6.53134 60.6875 6.30855 55.0669C6.08576 49.4463 8.04586 43.9573 11.7785 39.7492C15.5112 35.5411 20.727 32.94 26.334 32.4905C27.1336 26.8444 29.6833 21.591 33.6242 17.4695C37.5652 13.348 42.6991 10.5657 48.3038 9.51419C53.9084 8.46263 59.7017 9.19468 64.8687 11.6074C70.0356 14.02 74.316 17.9919 77.1079 22.9642C82.2284 21.1916 87.7609 20.9845 92.9996 22.3692C98.2383 23.7539 102.946 26.6676 106.522 30.7388C110.098 34.81 112.38 39.854 113.077 45.2276C113.775 50.6011 112.856 56.0607 110.438 60.9098C109.019 65.2912 106.248 69.1104 102.523 71.8192C98.7987 74.5281 94.3117 75.9873 89.7063 75.9874H86.0435Z" fill="url(#paint0_linear_420_35569)"/>
<path d="M89.7062 75.6843C92.0447 75.6843 94.3439 75.311 96.5399 74.5746C98.6635 73.8625 100.657 72.8233 102.466 71.486C104.253 70.164 105.82 68.5804 107.123 66.7792C108.442 64.9555 109.46 62.9494 110.149 60.8165L110.156 60.7946L110.167 60.7741C111.083 58.9423 111.789 57.0045 112.265 55.0145C112.754 52.9667 113.002 50.8509 113.002 48.7259C113.002 46.8966 112.818 45.0686 112.454 43.2926C112.1 41.5618 111.572 39.8594 110.884 38.2326C110.208 36.6353 109.372 35.0947 108.398 33.6535C107.434 32.2259 106.326 30.8835 105.106 29.6635C103.886 28.4435 102.544 27.3359 101.116 26.3715C99.675 25.3978 98.1343 24.5616 96.537 23.886C94.9102 23.1979 93.2078 22.6694 91.477 22.3152C89.701 21.9518 87.8729 21.7675 86.0436 21.7675C83.0147 21.7675 80.0417 22.266 77.207 23.2491L76.9678 23.3321L76.8437 23.1114C74.5369 19.0095 71.1814 15.5647 67.1399 13.1494C65.0961 11.928 62.9002 10.984 60.6135 10.3439C58.2543 9.68349 55.8038 9.34865 53.3301 9.34865C50.0027 9.34865 46.7548 9.94749 43.6763 11.1285C40.7024 12.2694 37.9743 13.9176 35.5678 16.0271C33.1751 18.1244 31.1895 20.5991 29.666 23.3824C28.1052 26.234 27.0851 29.3122 26.634 32.5313L26.6002 32.7723L26.3576 32.7913C23.6442 33.0037 21.0335 33.7181 18.5981 34.9147C16.2317 36.0774 14.1186 37.65 12.3175 39.5888C8.61655 43.5727 6.57835 48.7634 6.57835 54.2046C6.57835 57.1045 7.14623 59.9174 8.26621 62.5654C8.80453 63.8381 9.47082 65.0656 10.2466 66.2139C11.015 67.3513 11.8976 68.421 12.8696 69.393C13.8417 70.3651 14.9113 71.2476 16.0488 72.0161C17.1971 72.7919 18.4246 73.4581 19.6973 73.9965C22.3452 75.1164 25.1582 75.6843 28.058 75.6843H86.0436H89.7062ZM89.7062 75.9872H86.0436H28.058C16.0279 75.9872 6.27545 66.2348 6.27545 54.2046C6.27545 42.7546 15.1095 33.3679 26.334 32.4893C28.1906 19.2407 39.5697 9.04575 53.3301 9.04575C63.5386 9.04575 72.4363 14.6565 77.1077 22.9629C79.9072 21.992 82.9137 21.4646 86.0436 21.4646C101.1 21.4646 113.305 33.6701 113.305 48.7259C113.305 53.1047 112.272 57.2432 110.438 60.9096C107.61 69.6591 99.3972 75.9872 89.7062 75.9872Z" fill="white" fill-opacity="0.5"/>
</g>
</g>
<defs>
<filter id="filter0_f_420_35569" x="5.06384" y="7.83413" width="109.453" height="90.251" filterUnits="userSpaceOnUse" color-interpolation-filters="sRGB">
<feFlood flood-opacity="0" result="BackgroundImageFix"/>
<feBlend mode="normal" in="SourceGraphic" in2="BackgroundImageFix" result="shape"/>
<feGaussianBlur stdDeviation="0.605806" result="effect1_foregroundBlur_420_35569"/>
</filter>
<filter id="filter1_d_420_35569" x="0.217387" y="0.564455" width="125.204" height="85.1158" filterUnits="userSpaceOnUse" color-interpolation-filters="sRGB">
<feFlood flood-opacity="0" result="BackgroundImageFix"/>
<feColorMatrix in="SourceAlpha" type="matrix" values="0 0 0 0 0 0 0 0 0 0 0 0 0 0 0 0 0 0 127 0" result="hardAlpha"/>
<feOffset dx="3.02903" dy="0.605806"/>
<feGaussianBlur stdDeviation="4.54355"/>
<feColorMatrix type="matrix" values="0 0 0 0 0.258824 0 0 0 0 0.627451 0 0 0 0 0.941176 0 0 0 0.596 0"/>
<feBlend mode="normal" in2="BackgroundImageFix" result="effect1_dropShadow_420_35569"/>
<feBlend mode="normal" in="SourceGraphic" in2="effect1_dropShadow_420_35569" result="shape"/>
</filter>
<linearGradient id="paint0_linear_420_35569" x1="59.7978" y1="9.04654" x2="90.8886" y2="84.2161" gradientUnits="userSpaceOnUse">
<stop stop-color="white" stop-opacity="0.604"/>
<stop offset="1" stop-color="white" stop-opacity="0.2"/>
</linearGradient>
</defs>
</svg>
