<svg width="80" height="52" viewBox="0 0 80 52" fill="none" xmlns="http://www.w3.org/2000/svg">
<g filter="url(#filter0_f_420_35712)">
<path d="M76.2738 18.0283C76.2738 18.0283 72.1274 20.798 68.8866 20.7066C64.8244 20.589 64.1286 18.1755 60.3641 18.0283C56.4243 18.0574 56.022 20.5612 51.7514 20.7066C47.9251 20.6726 46.3031 18.0737 42.6567 18.0283C39.0104 17.9829 35.1211 20.7066 35.1211 20.7066" stroke="white" stroke-width="4.84645" stroke-linecap="round"/>
<path d="M64.1574 4.40405C64.1574 4.40405 59.38 8.41328 55.6458 8.28121C50.9653 8.11098 50.1633 4.61608 45.8266 4.40405C41.287 4.44615 40.8238 8.06918 35.9032 8.28121C31.4947 8.23244 29.627 4.47008 25.4245 4.40405C21.2221 4.33802 16.7424 8.28121 16.7424 8.28121" stroke="white" stroke-width="4.84645" stroke-linecap="round"/>
<path d="M48.7093 30.4537C48.7093 30.4537 44.2567 34.4629 40.7754 34.3309C36.4136 34.1606 35.6651 30.6657 31.6223 30.4537C27.3907 30.4958 26.9576 34.1188 22.3719 34.3309C18.2627 34.2815 16.5216 30.5194 12.6033 30.4537C8.68492 30.388 4.51001 34.3309 4.51001 34.3309" stroke="white" stroke-width="4.84645" stroke-linecap="round"/>
<path d="M74.1535 44.0844C74.1535 44.0844 69.5512 48.0936 65.9546 47.9613C61.4455 47.791 60.6734 44.2961 56.4955 44.0841C52.1225 44.1262 51.676 47.7492 46.9359 47.9613C42.6886 47.9122 40.8896 44.1501 36.8425 44.0844C32.7954 44.0187 28.4788 47.9616 28.4788 47.9616" stroke="white" stroke-width="4.84645" stroke-linecap="round"/>
</g>
<defs>
<filter id="filter0_f_420_35712" x="0.875179" y="0.768398" width="79.0337" height="50.8308" filterUnits="userSpaceOnUse" color-interpolation-filters="sRGB">
<feFlood flood-opacity="0" result="BackgroundImageFix"/>
<feBlend mode="normal" in="SourceGraphic" in2="BackgroundImageFix" result="shape"/>
<feGaussianBlur stdDeviation="0.605806" result="effect1_foregroundBlur_420_35712"/>
</filter>
</defs>
</svg>
