<svg width="126" height="95" viewBox="0 0 126 95" fill="none" xmlns="http://www.w3.org/2000/svg">
<g filter="url(#filter0_f_420_35374)">
<path d="M88.0359 54.8984C88.0359 54.8984 82.3528 60.015 77.911 59.8457C72.3431 59.6285 71.3895 55.1692 66.2299 54.8984C60.8294 54.952 60.2784 59.5773 54.4248 59.8457C49.1801 59.7833 46.9583 54.982 41.9592 54.8984C36.96 54.8148 31.6302 59.8457 31.6302 59.8457" stroke="white" stroke-width="6.05806" stroke-linecap="round"/>
<path d="M68.6501 71.2552C68.6501 71.2552 62.967 76.3718 58.5252 76.2025C52.9573 75.9853 52.0037 71.526 46.8441 71.2552C41.4436 71.3088 40.8926 75.9341 35.039 76.2025C29.7943 76.1401 27.5725 71.3388 22.5734 71.2552C17.5742 71.1716 12.2444 76.2025 12.2444 76.2025" stroke="white" stroke-width="6.05806" stroke-linecap="round"/>
<path d="M98.3346 85.1887C98.3346 85.1887 92.6516 90.3054 88.2098 90.136C82.6418 89.9189 81.6883 85.4595 76.5286 85.1887C71.1282 85.2423 70.5772 89.8677 64.7236 90.136C59.4788 90.0736 57.257 85.2723 52.2579 85.1887C47.2588 85.1051 41.9289 90.136 41.9289 90.136" stroke="white" stroke-width="6.05806" stroke-linecap="round"/>
<g filter="url(#filter1_d_420_35374)">
<path d="M86.0807 75.9874H28.0953C22.4702 75.9831 17.0649 73.803 13.0109 69.9035C8.95688 66.0041 6.56847 60.6875 6.34568 55.0669C6.12289 49.4463 8.08299 43.9573 11.8156 39.7492C15.5483 35.5411 20.7641 32.94 26.3712 32.4905C27.1708 26.8444 29.7204 21.591 33.6613 17.4695C37.6023 13.348 42.7362 10.5657 48.3409 9.51419C53.9456 8.46263 59.7389 9.19468 64.9058 11.6074C70.0727 14.02 74.3532 17.9919 77.145 22.9642C82.2656 21.1916 87.7982 20.9845 93.037 22.3693C98.2759 23.7541 102.983 26.668 106.559 30.7393C110.135 34.8106 112.417 39.8549 113.115 45.2286C113.812 50.6023 112.893 56.0619 110.474 60.911C109.055 65.292 106.284 69.1108 102.56 71.8194C98.8353 74.528 94.3486 75.9871 89.7434 75.9874H86.0807Z" fill="url(#paint0_linear_420_35374)"/>
<path d="M89.7434 75.6843C92.0816 75.6843 94.3806 75.311 96.5765 74.5746C98.6999 73.8626 100.693 72.8235 102.502 71.4862C104.289 70.1643 105.856 68.5809 107.159 66.7798C108.478 64.9563 109.496 62.9504 110.186 60.8177L110.193 60.7959L110.203 60.7753C111.12 58.9433 111.826 57.0054 112.302 55.0153C112.791 52.9675 113.039 50.8515 113.039 48.7259C113.039 46.8966 112.855 45.0686 112.491 43.2926C112.137 41.5618 111.609 39.8594 110.921 38.2326C110.245 36.6353 109.409 35.0947 108.435 33.6535C107.471 32.2259 106.363 30.8835 105.143 29.6635C103.923 28.4435 102.581 27.3359 101.153 26.3715C99.712 25.3978 98.1714 24.5616 96.5741 23.886C94.9473 23.1979 93.2449 22.6694 91.5141 22.3152C89.7381 21.9518 87.9101 21.7675 86.0808 21.7675C83.0519 21.7675 80.0788 22.266 77.2442 23.2491L77.005 23.332L76.8809 23.1114C74.5741 19.0095 71.2185 15.5647 67.1771 13.1494C65.1332 11.9279 62.9374 10.984 60.6506 10.3439C58.2915 9.68349 55.841 9.34865 53.3673 9.34865C50.0399 9.34865 46.792 9.94749 43.7135 11.1285C40.7396 12.2694 38.0115 13.9176 35.605 16.0271C33.2123 18.1244 31.2266 20.5991 29.7032 23.3824C28.1424 26.234 27.1223 29.3122 26.6712 32.5313L26.6374 32.7723L26.3948 32.7913C23.6813 33.0037 21.0707 33.7181 18.6353 34.9147C16.2689 36.0774 14.1558 37.65 12.3546 39.5888C8.65374 43.5727 6.61554 48.7634 6.61554 54.2046C6.61554 57.1045 7.18342 59.9174 8.3034 62.5654C8.84171 63.8381 9.508 65.0656 10.2838 66.2139C11.0522 67.3513 11.9347 68.421 12.9068 69.393C13.8789 70.3651 14.9485 71.2476 16.086 72.0161C17.2343 72.7919 18.4618 73.4581 19.7345 73.9965C22.3824 75.1164 25.1954 75.6843 28.0952 75.6843H86.0808H89.7434ZM89.7434 75.9872H86.0808H28.0952C16.0651 75.9872 6.31264 66.2348 6.31264 54.2046C6.31264 42.7546 15.1467 33.3679 26.3712 32.4893C28.2278 19.2407 39.6068 9.04575 53.3673 9.04575C63.5757 9.04575 72.4735 14.6565 77.1449 22.9629C79.9444 21.992 82.9509 21.4646 86.0808 21.4646C101.137 21.4646 113.342 33.6701 113.342 48.7259C113.342 53.1057 112.309 57.2439 110.474 60.9109C107.646 69.6594 99.4334 75.9872 89.7434 75.9872Z" fill="white" fill-opacity="0.5"/>
</g>
</g>
<defs>
<filter id="filter0_f_420_35374" x="5.10102" y="7.83413" width="109.453" height="86.5466" filterUnits="userSpaceOnUse" color-interpolation-filters="sRGB">
<feFlood flood-opacity="0" result="BackgroundImageFix"/>
<feBlend mode="normal" in="SourceGraphic" in2="BackgroundImageFix" result="shape"/>
<feGaussianBlur stdDeviation="0.605806" result="effect1_foregroundBlur_420_35374"/>
</filter>
<filter id="filter1_d_420_35374" x="0.254572" y="0.564455" width="125.204" height="85.1158" filterUnits="userSpaceOnUse" color-interpolation-filters="sRGB">
<feFlood flood-opacity="0" result="BackgroundImageFix"/>
<feColorMatrix in="SourceAlpha" type="matrix" values="0 0 0 0 0 0 0 0 0 0 0 0 0 0 0 0 0 0 127 0" result="hardAlpha"/>
<feOffset dx="3.02903" dy="0.605806"/>
<feGaussianBlur stdDeviation="4.54355"/>
<feColorMatrix type="matrix" values="0 0 0 0 0.258824 0 0 0 0 0.627451 0 0 0 0 0.941176 0 0 0 0.596 0"/>
<feBlend mode="normal" in2="BackgroundImageFix" result="effect1_dropShadow_420_35374"/>
<feBlend mode="normal" in="SourceGraphic" in2="effect1_dropShadow_420_35374" result="shape"/>
</filter>
<linearGradient id="paint0_linear_420_35374" x1="59.8349" y1="9.04654" x2="90.9258" y2="84.2161" gradientUnits="userSpaceOnUse">
<stop stop-color="white" stop-opacity="0.604"/>
<stop offset="1" stop-color="white" stop-opacity="0.2"/>
</linearGradient>
</defs>
</svg>
