<svg width="126" height="107" viewBox="0 0 126 107" fill="none" xmlns="http://www.w3.org/2000/svg">
<g filter="url(#filter0_f_420_35294)">
<path d="M35.9382 52.6426C36.155 52.6481 38.3559 60.2903 38.3559 63.26C38.3559 66.2297 37.2734 68.6374 35.9382 68.6374C34.603 68.6374 33.5204 66.23 33.5204 63.2603C33.5204 60.2906 35.7213 52.6375 35.9382 52.6426Z" fill="#42A0F0"/>
<path d="M34.77 64.1688C35.1232 64.2768 35.5885 63.7792 35.8092 63.0574C36.0298 62.3356 35.9224 61.6628 35.5692 61.5549C35.2159 61.4469 34.7507 61.9445 34.53 62.6663C34.3093 63.3881 34.4167 64.0608 34.77 64.1688Z" fill="white"/>
<path d="M52.7162 52.6426C52.9331 52.6481 55.134 60.2903 55.134 63.26C55.134 66.2297 54.0514 68.6374 52.7162 68.6374C51.381 68.6374 50.2985 66.23 50.2985 63.2603C50.2985 60.2906 52.4994 52.6375 52.7162 52.6426Z" fill="#42A0F0"/>
<path d="M51.5481 64.1688C51.9013 64.2768 52.3665 63.7792 52.5872 63.0574C52.8079 62.3356 52.7005 61.6628 52.3472 61.5549C51.994 61.4469 51.5287 61.9445 51.3081 62.6663C51.0874 63.3881 51.1948 64.0608 51.5481 64.1688Z" fill="white"/>
<path d="M70.717 52.6426C70.9338 52.6481 73.1347 60.2903 73.1347 63.26C73.1347 66.2297 72.0522 68.6374 70.717 68.6374C69.3818 68.6374 68.2992 66.23 68.2992 63.2603C68.2992 60.2906 70.5001 52.6375 70.717 52.6426Z" fill="#42A0F0"/>
<path d="M69.5487 64.1688C69.9019 64.2768 70.3672 63.7792 70.5878 63.0574C70.8085 62.3356 70.7011 61.6628 70.3478 61.5549C69.9946 61.4469 69.5294 61.9445 69.3087 62.6663C69.088 63.3881 69.1954 64.0608 69.5487 64.1688Z" fill="white"/>
<path d="M87.3423 51.734C87.5592 51.7394 89.7601 59.3817 89.7601 62.3513C89.7601 65.321 88.6775 67.7288 87.3423 67.7288C86.0071 67.7288 84.9246 65.3213 84.9246 62.3516C84.9246 59.382 87.1255 51.7288 87.3423 51.734Z" fill="#42A0F0"/>
<path d="M86.1741 63.2601C86.5273 63.3681 86.9926 62.8705 87.2133 62.1487C87.434 61.4269 87.3265 60.7542 86.9733 60.6462C86.62 60.5382 86.1548 61.0358 85.9341 61.7576C85.7134 62.4794 85.8209 63.1521 86.1741 63.2601Z" fill="white"/>
<path d="M61.1873 72.9372C61.4042 72.9426 63.6051 80.5849 63.6051 83.5546C63.6051 86.5242 62.5225 88.932 61.1873 88.932C59.8521 88.932 58.7695 86.5245 58.7695 83.5549C58.7695 80.5852 60.9704 72.932 61.1873 72.9372Z" fill="#42A0F0"/>
<path d="M60.019 84.4634C60.3722 84.5714 60.8375 84.0738 61.0582 83.3519C61.2789 82.6301 61.1714 81.9574 60.8182 81.8494C60.4649 81.7414 59.9997 82.239 59.779 82.9609C59.5583 83.6827 59.6658 84.3554 60.019 84.4634Z" fill="white"/>
<path d="M79.1876 72.9372C79.4045 72.9426 81.6054 80.5849 81.6054 83.5546C81.6054 86.5242 80.5228 88.932 79.1876 88.932C77.8524 88.932 76.7698 86.5245 76.7698 83.5549C76.7698 80.5852 78.9707 72.932 79.1876 72.9372Z" fill="#42A0F0"/>
<path d="M78.0194 84.4634C78.3726 84.5714 78.8379 84.0738 79.0585 83.3519C79.2792 82.6301 79.1718 81.9574 78.8185 81.8494C78.4653 81.7414 78.0001 82.239 77.7794 82.9609C77.5587 83.6827 77.6661 84.3554 78.0194 84.4634Z" fill="white"/>
<path d="M98.2469 72.9372C98.4638 72.9426 100.665 80.5849 100.665 83.5546C100.665 86.5242 99.5821 88.932 98.2469 88.932C96.9117 88.932 95.8291 86.5245 95.8291 83.5549C95.8291 80.5852 98.03 72.932 98.2469 72.9372Z" fill="#42A0F0"/>
<path d="M97.0786 84.4634C97.4319 84.5714 97.8971 84.0738 98.1178 83.3519C98.3385 82.6301 98.231 81.9574 97.8778 81.8494C97.5246 81.7414 97.0593 82.239 96.8386 82.9609C96.618 83.6827 96.7254 84.3554 97.0786 84.4634Z" fill="white"/>
<path d="M43.1869 73.8459C43.4038 73.8513 45.6047 81.4936 45.6047 84.4633C45.6047 87.4329 44.5221 89.8407 43.1869 89.8407C41.8517 89.8407 40.7692 87.4332 40.7692 84.4636C40.7692 81.4939 42.9701 73.8407 43.1869 73.8459Z" fill="#42A0F0"/>
<path d="M42.0188 85.372C42.372 85.48 42.8372 84.9824 43.0579 84.2606C43.2786 83.5387 43.1712 82.866 42.8179 82.758C42.4647 82.65 41.9994 83.1477 41.7788 83.8695C41.5581 84.5913 41.6655 85.264 42.0188 85.372Z" fill="white"/>
<path d="M26.2453 72.9372C26.4622 72.9426 28.6631 80.5849 28.6631 83.5546C28.6631 86.5242 27.5805 88.932 26.2453 88.932C24.9101 88.932 23.8275 86.5245 23.8275 83.5549C23.8275 80.5852 26.0284 72.932 26.2453 72.9372Z" fill="#42A0F0"/>
<path d="M25.077 84.4634C25.4302 84.5714 25.8955 84.0738 26.1162 83.3519C26.3368 82.6301 26.2294 81.9574 25.8762 81.8494C25.5229 81.7414 25.0577 82.239 24.837 82.9609C24.6163 83.6827 24.7238 84.3554 25.077 84.4634Z" fill="white"/>
<path d="M35.9382 88.991C36.155 88.9964 38.3559 96.6387 38.3559 99.6083C38.3559 102.578 37.2734 104.986 35.9382 104.986C34.603 104.986 33.5204 102.578 33.5204 99.6086C33.5204 96.639 35.7213 88.9858 35.9382 88.991Z" fill="#42A0F0"/>
<path d="M34.77 100.517C35.1232 100.625 35.5885 100.128 35.8092 99.4058C36.0298 98.6839 35.9224 98.0112 35.5692 97.9032C35.2159 97.7952 34.7507 98.2929 34.53 99.0147C34.3093 99.7365 34.4167 100.409 34.77 100.517Z" fill="white"/>
<path d="M52.7162 88.991C52.9331 88.9964 55.134 96.6387 55.134 99.6083C55.134 102.578 54.0514 104.986 52.7162 104.986C51.381 104.986 50.2985 102.578 50.2985 99.6086C50.2985 96.639 52.4994 88.9858 52.7162 88.991Z" fill="#42A0F0"/>
<path d="M51.5481 100.517C51.9013 100.625 52.3665 100.128 52.5872 99.4058C52.8079 98.6839 52.7005 98.0112 52.3472 97.9032C51.994 97.7952 51.5287 98.2929 51.3081 99.0147C51.0874 99.7365 51.1948 100.409 51.5481 100.517Z" fill="white"/>
<path d="M70.717 88.991C70.9338 88.9964 73.1347 96.6387 73.1347 99.6083C73.1347 102.578 72.0522 104.986 70.717 104.986C69.3818 104.986 68.2992 102.578 68.2992 99.6086C68.2992 96.639 70.5001 88.9858 70.717 88.991Z" fill="#42A0F0"/>
<path d="M69.5487 100.517C69.9019 100.625 70.3672 100.128 70.5878 99.4058C70.8085 98.6839 70.7011 98.0112 70.3478 97.9032C69.9946 97.7952 69.5294 98.2929 69.3087 99.0147C69.088 99.7365 69.1954 100.409 69.5487 100.517Z" fill="white"/>
<path d="M87.3423 88.991C87.5592 88.9964 89.7601 96.6387 89.7601 99.6083C89.7601 102.578 88.6775 104.986 87.3423 104.986C86.0071 104.986 84.9246 102.578 84.9246 99.6086C84.9246 96.639 87.1255 88.9858 87.3423 88.991Z" fill="#42A0F0"/>
<path d="M86.1741 100.517C86.5273 100.625 86.9926 100.128 87.2133 99.4058C87.434 98.6839 87.3265 98.0112 86.9733 97.9032C86.62 97.7952 86.1548 98.2929 85.9341 99.0147C85.7134 99.7365 85.8209 100.409 86.1741 100.517Z" fill="white"/>
<g filter="url(#filter1_d_420_35294)">
<path d="M86.3313 76.1609H28.3459C22.7209 76.1567 17.3156 73.9766 13.2616 70.0771C9.20753 66.1776 6.81912 60.8611 6.59633 55.2404C6.37354 49.6198 8.33365 44.1309 12.0663 39.9228C15.799 35.7146 21.0148 33.1135 26.6218 32.664C27.4214 27.0179 29.971 21.7646 33.912 17.6431C37.8529 13.5215 42.9869 10.7393 48.5915 9.68774C54.1962 8.63618 59.9895 9.36823 65.1564 11.7809C70.3233 14.1936 74.6038 18.1655 77.3957 23.1377C82.5162 21.3652 88.0486 21.1581 93.2874 22.5427C98.5261 23.9274 103.234 26.8412 106.81 30.9123C110.386 34.9835 112.668 40.0276 113.365 45.4011C114.063 50.7747 113.144 56.2342 110.725 61.0833C109.306 65.4647 106.536 69.2839 102.811 71.9928C99.0865 74.7016 94.5995 76.1608 89.994 76.1609H86.3313Z" fill="url(#paint0_linear_420_35294)"/>
<path d="M89.994 75.8579C92.3324 75.8579 94.6316 75.4846 96.8277 74.7482C98.9513 74.0361 100.945 72.9969 102.753 71.6596C104.541 70.3376 106.108 68.754 107.41 66.9528C108.729 65.1292 109.748 63.123 110.437 60.9901L110.444 60.9682L110.454 60.9477C111.371 59.1159 112.077 57.1781 112.552 55.1881C113.042 53.1404 113.29 51.0246 113.29 48.8995C113.29 47.0703 113.106 45.2422 112.742 43.4662C112.388 41.7355 111.859 40.033 111.171 38.4063C110.496 36.8089 109.66 35.2683 108.686 33.8271C107.722 32.3996 106.614 31.0571 105.394 29.8371C104.174 28.6171 102.831 27.5095 101.404 26.5451C99.9628 25.5714 98.4221 24.7352 96.8248 24.0596C95.198 23.3715 93.4956 22.843 91.7648 22.4888C89.9888 22.1254 88.1607 21.9411 86.3314 21.9411C83.3025 21.9411 80.3295 22.4396 77.4948 23.4227L77.2556 23.5057L77.1315 23.285C74.8247 19.1832 71.4691 15.7383 67.4277 13.3231C65.3838 12.1016 63.188 11.1577 60.9012 10.5175C58.5421 9.85711 56.0916 9.52226 53.6178 9.52226C50.2905 9.52226 47.0425 10.1211 43.9641 11.3021C40.9902 12.4431 38.2621 14.0912 35.8556 16.2007C33.4629 18.298 31.4772 20.7728 29.9538 23.556C28.393 26.4076 27.3729 29.4858 26.9217 32.7049L26.888 32.9459L26.6454 32.9649C23.9319 33.1773 21.3213 33.8917 18.8859 35.0883C16.5195 36.251 14.4064 37.8236 12.6052 39.7624C8.90433 43.7463 6.86614 48.937 6.86614 54.3782C6.86614 57.2781 7.43401 60.0911 8.554 62.739C9.09231 64.0117 9.7586 65.2392 10.5344 66.3875C11.3028 67.525 12.1853 68.5946 13.1574 69.5666C14.1295 70.5387 15.1991 71.4213 16.3366 72.1897C17.4848 72.9655 18.7124 73.6318 19.9851 74.1701C22.633 75.2901 25.446 75.8579 28.3458 75.8579H86.3314H89.994ZM89.994 76.1608H86.3314H28.3458C16.3157 76.1608 6.56323 66.4084 6.56323 54.3782C6.56323 42.9282 15.3973 33.5415 26.6218 32.6629C28.4784 19.4143 39.8574 9.21936 53.6178 9.21936C63.8263 9.21936 72.7241 14.8301 77.3955 23.1366C80.195 22.1657 83.2015 21.6382 86.3314 21.6382C101.388 21.6382 113.593 33.8437 113.593 48.8995C113.593 53.2784 112.56 57.4168 110.725 61.0833C107.898 69.8328 99.685 76.1608 89.994 76.1608Z" fill="white" fill-opacity="0.5"/>
</g>
</g>
<defs>
<filter id="filter0_f_420_35294" x="5.35162" y="8.00775" width="109.453" height="98.1896" filterUnits="userSpaceOnUse" color-interpolation-filters="sRGB">
<feFlood flood-opacity="0" result="BackgroundImageFix"/>
<feBlend mode="normal" in="SourceGraphic" in2="BackgroundImageFix" result="shape"/>
<feGaussianBlur stdDeviation="0.605806" result="effect1_foregroundBlur_420_35294"/>
</filter>
<filter id="filter1_d_420_35294" x="0.505167" y="0.73807" width="125.204" height="85.1158" filterUnits="userSpaceOnUse" color-interpolation-filters="sRGB">
<feFlood flood-opacity="0" result="BackgroundImageFix"/>
<feColorMatrix in="SourceAlpha" type="matrix" values="0 0 0 0 0 0 0 0 0 0 0 0 0 0 0 0 0 0 127 0" result="hardAlpha"/>
<feOffset dx="3.02903" dy="0.605806"/>
<feGaussianBlur stdDeviation="4.54355"/>
<feColorMatrix type="matrix" values="0 0 0 0 0.258824 0 0 0 0 0.627451 0 0 0 0 0.941176 0 0 0 0.596 0"/>
<feBlend mode="normal" in2="BackgroundImageFix" result="effect1_dropShadow_420_35294"/>
<feBlend mode="normal" in="SourceGraphic" in2="effect1_dropShadow_420_35294" result="shape"/>
</filter>
<linearGradient id="paint0_linear_420_35294" x1="60.0856" y1="9.22009" x2="91.1764" y2="84.3897" gradientUnits="userSpaceOnUse">
<stop stop-color="white" stop-opacity="0.604"/>
<stop offset="1" stop-color="white" stop-opacity="0.2"/>
</linearGradient>
</defs>
</svg>
