<svg width="75" height="79" viewBox="0 0 75 79" fill="none" xmlns="http://www.w3.org/2000/svg">
<g filter="url(#filter0_f_420_35743)">
<path d="M38.1138 77.2669C57.6745 77.2669 73.5317 61.3294 73.5317 41.6694C73.5317 22.0095 57.6745 6.07193 38.1138 6.07193C18.553 6.07193 2.69592 22.0095 2.69592 41.6694C2.69592 61.3294 18.553 77.2669 38.1138 77.2669Z" fill="#FA9E42"/>
<g filter="url(#filter1_f_420_35743)">
<path d="M35.5544 36.6071C47.3256 30.3549 53.9095 19.7164 50.2599 12.8452C46.6104 5.97404 34.1094 5.47227 22.3382 11.7245C10.567 17.9767 3.9831 28.6152 7.63267 35.4864C11.2822 42.3576 23.7833 42.8593 35.5544 36.6071Z" fill="#F8E36F"/>
</g>
</g>
<defs>
<filter id="filter0_f_420_35743" x="1.48431" y="4.86032" width="73.2589" height="73.6182" filterUnits="userSpaceOnUse" color-interpolation-filters="sRGB">
<feFlood flood-opacity="0" result="BackgroundImageFix"/>
<feBlend mode="normal" in="SourceGraphic" in2="BackgroundImageFix" result="shape"/>
<feGaussianBlur stdDeviation="0.605806" result="effect1_foregroundBlur_420_35743"/>
</filter>
<filter id="filter1_f_420_35743" x="0.56779" y="1.28671" width="56.7571" height="45.7582" filterUnits="userSpaceOnUse" color-interpolation-filters="sRGB">
<feFlood flood-opacity="0" result="BackgroundImageFix"/>
<feBlend mode="normal" in="SourceGraphic" in2="BackgroundImageFix" result="shape"/>
<feGaussianBlur stdDeviation="3.02903" result="effect1_foregroundBlur_420_35743"/>
</filter>
</defs>
</svg>
